<svg width="27" height="45" viewBox="0 0 27 45" fill="none" xmlns="http://www.w3.org/2000/svg">
<path d="M24.8007 18.8547L3.22753 32.4656C2.83013 32.6888 2.47702 32.8003 2.1974 32.8003C1.66754 32.8003 1.18197 32.5028 0.72571 31.9263C0.328442 31.35 0.122416 30.6992 0.122416 29.974C0.122416 29.2488 0.519816 28.4492 1.32918 27.5753L18.9879 16.4002L1.32918 5.22507C0.490383 4.68582 0.0782471 3.88624 0.0782471 2.82641C0.0782471 2.02683 0.284315 1.35741 0.681714 0.818271C1.07894 0.279024 1.59394 0.000114269 2.1974 0.000114269C2.53577 0.000114269 2.88899 0.111612 3.22753 0.334715L24.8007 13.9457C25.6394 14.485 26.0514 15.3031 26.0514 16.4002C26.0514 16.7348 25.9633 17.144 25.7865 17.6459C25.6247 18.1666 25.2862 18.557 24.8007 18.8547" fill="#5853E4"/>
<path d="M24.7224 30.5899L3.14924 44.2009C2.75184 44.4241 2.39878 44.5356 2.11911 44.5356C1.58929 44.5356 1.10368 44.2381 0.647462 43.6617C0.250194 43.0853 0.0441698 42.4345 0.0441698 41.7093C0.0441698 40.9841 0.441525 40.1845 1.25088 39.3107L18.9097 28.1355L1.25088 16.9603C0.412093 16.4211 0 15.6215 0 14.5617C0 13.7621 0.206025 13.0928 0.603423 12.5535C1.00069 12.0143 1.51568 11.7354 2.11911 11.7354C2.45751 11.7354 2.81075 11.8469 3.14924 12.07L24.7224 25.681C25.5612 26.2203 25.9733 27.0384 25.9733 28.1355C25.9733 28.4701 25.885 28.8793 25.7084 29.3813C25.5465 29.902 25.2079 30.2924 24.7224 30.5899" fill="#5853E4"/>
</svg>
